<svg xmlns="http://www.w3.org/2000/svg" width="114" height="70" viewBox="0 0 114 70"><g transform="translate(-4199.189 -325.723)"><g transform="translate(4199.189 325.723)"><path d="M4200.792,329.245c10.436.378,20.9.47,31.406.39,11.505-.086,23.047-.249,34.628-.415,5.849-.084,11.706-.3,17.574-.459l-1.481-1.476q.151,8.871.435,17.738c.02.609.06,1.216.1,1.824.01.172.019.343.031.514.013.2.065.4.011.14a.249.249,0,0,1,0,.057.876.876,0,0,0,1.752-.011c0-.175-.022.3.007-.133.01-.141.018-.28.026-.42.031-.479.065-.959.091-1.44.083-1.6.111-3.2.163-4.793q.185-5.483.3-10.965l.052-2.537a1.493,1.493,0,0,0-1.483-1.476c-10.89-.109-21.74-.057-32.566.011-11.466.074-22.9-.034-34.29.066-5.593.049-11.177.067-16.751.007-2.144-.023-2.128,3.3,0,3.376Z" transform="translate(-4199.189 -325.723)"/><g transform="translate(0.049 0.813)"><path d="M4199.9,327.86c-.178,4.355-.44,8.722-.5,13.081q-.083,5.673-.144,11.348c-.073,7.139.036,14.3.215,21.437q.084,3.34.185,6.677.051,1.773.109,3.547a20.819,20.819,0,0,0,.267,3.834c.382,1.7,2.364,1.872,2.685,0a38.277,38.277,0,0,0,.066-6.686q-.035-2.877-.063-5.753c-.034-3.652-.075-7.3-.1-10.956q-.075-10.882-.166-21.763c-.043-4.931-.257-9.858-.419-14.782-.061-1.854-2.055-1.831-2.13.018Z" transform="translate(-4199.234 -326.462)"/></g><g transform="translate(0.707 13.703)"><path d="M4283.495,338.208c-2.445.6-4.822,1.482-7.192,2.316-3.832,1.348-7.6,2.877-11.382,4.345-7.176,2.79-14.275,5.761-21.481,8.382-.523.19-1.048.378-1.574.556-.219.075-.439.148-.659.219a1.365,1.365,0,0,0-.248.078c-.379.209.041-.5.5.063-.139-.173-.756-.268-.956-.339q-3.047-1.08-6.094-2.146l-19.679-6.884-8.679-3.037a29.455,29.455,0,0,0-4.49-1.448c-.026,0-.053-.012-.08-.016a2.173,2.173,0,0,0-.518-.022c-.576.008.485.038.466.02a.167.167,0,0,0-.059-.02c-1.53-.534-2.188,1.939-.668,2.47l.075.026-.751-.583a3.559,3.559,0,0,0,1.793,1.079c.847.331,1.715.615,2.575.915l8.081,2.819,19.884,6.934q3.375,1.178,6.757,2.348c.488.167.978.37,1.476.507a3.511,3.511,0,0,0,2.1-.364c6.773-2.384,13.434-5.24,20.079-8.033,6.625-2.784,13.241-5.644,19.922-8.358.391-.158.782-.313,1.179-.456a.71.71,0,0,0-.376-1.369Z" transform="translate(-4199.835 -338.183)"/></g><g transform="translate(0.938 60.379)"><path d="M4264.926,383.1l-63.672.005a1.228,1.228,0,0,1,0-2.456l63.672-.027a1.239,1.239,0,0,1,0,2.478Z" transform="translate(-4200.046 -380.627)"/></g></g><g transform="translate(4260.821 355.533)"><path d="M4279.946,352.841c-3.911-.152-7.762,1.239-11.207,2.99a35.756,35.756,0,0,0-9.72,7.442q-1.009,1.074-1.937,2.224c-.74.918-1.876,1.961-1.542,3.258a8.452,8.452,0,0,0,.523,1.27,25.588,25.588,0,0,0,3.563,5.616,26.385,26.385,0,0,0,3.961,3.945c.826.663,1.675,1.3,2.563,1.875a9.5,9.5,0,0,0,3.385,1.734c1.768.242,3.385-1.74,1.877-3.238a18.383,18.383,0,0,0-3.228-1.994,22.735,22.735,0,0,1-2.594-1.912,24.273,24.273,0,0,1-3.791-4.035,23.388,23.388,0,0,1-2.024-3.286c-.1-.191-.189-.385-.281-.578-.048-.1-.27-.616-.117-.253.14.336-.031-.076-.07-.188l-.2,1.512a36.728,36.728,0,0,1,9.615-9.056c3.6-2.348,7.5-3.694,11.517-5.12a1.129,1.129,0,0,0-.3-2.206Z" transform="translate(-4255.48 -352.83)"/></g><g transform="translate(4279.916 356.838)"><path d="M4286.617,355.846a29.553,29.553,0,0,1,5.352,2.775,20.773,20.773,0,0,1,4.847,3.773c2.518,2.74,5.27,6.547,5.5,10.383l.264-.983a26.319,26.319,0,0,1-10.73,9.048c-5.411,2.437-10.943,2.129-16.645,1.184a1.845,1.845,0,0,0-.977,3.555c8.152,2.757,17.774.78,24.575-4.343a30.817,30.817,0,0,0,4.164-3.74q.812-.883,1.551-1.829c.641-.819,1.631-1.8,1.676-2.893.092-2.265-.98-4.712-2.021-6.659a29.929,29.929,0,0,0-3.785-5.442,18.8,18.8,0,0,0-6.355-4.8,24.747,24.747,0,0,0-3.468-1.347,23.3,23.3,0,0,0-3.7-.508c-1.079-.125-1.186,1.512-.245,1.822Z" transform="translate(-4272.92 -354.017)"/></g><g transform="translate(4276.307 348.274)"><path d="M4290.118,346.736c-3.775,7.535-7.347,15.167-10.86,22.828-1.762,3.843-3.491,7.7-5.225,11.557-.832,1.85-1.66,3.7-2.468,5.559-.817,1.876-1.887,3.835-1.939,5.919a1.11,1.11,0,0,0,1.875.781c1.473-1.386,2.192-3.454,3-5.267.863-1.931,1.691-3.875,2.519-5.822q2.415-5.678,4.794-11.369c3.249-7.765,6.537-15.518,10-23.19.512-1.137-1.121-2.144-1.7-1Z" transform="translate(-4269.625 -346.229)"/></g><g transform="translate(4282.547 362.96)"><path d="M4283.686,359.584a32.218,32.218,0,0,0-1.842,3.8q-1.141,2.615-2.5,5.124c-1.429,2.65-2.679,5.391-4.021,8.083a9.481,9.481,0,0,0,5.524,1.774,9.612,9.612,0,0,0,2.838-18.781Z" transform="translate(-4275.323 -359.584)"/></g><g transform="translate(4277.309 362.53)"><path d="M4276.957,367.583q1.393-2.585,2.567-5.28c.453-1.039.9-2.076,1.444-3.066-.286-.026-.574-.044-.866-.044a9.6,9.6,0,0,0-7,16.139C4274.387,372.748,4275.587,370.123,4276.957,367.583Z" transform="translate(-4270.539 -359.193)"/></g></g></svg>
